<?xml version="1.0" standalone="no"?>
<!DOCTYPE svg PUBLIC "-//W3C//DTD SVG 20010904//EN"
 "http://www.w3.org/TR/2001/REC-SVG-20010904/DTD/svg10.dtd">
<svg version="1.0" xmlns="http://www.w3.org/2000/svg"
 width="260.000000pt" height="260.000000pt" viewBox="0 0 260.000000 260.000000"
 preserveAspectRatio="xMidYMid meet">
<metadata>
Created by potrace 1.11, written by Peter Selinger 2001-2013
</metadata>
<g transform="translate(0.000000,260.000000) scale(0.100000,-0.100000)"
fill="#000000" stroke="none">
<path d="M0 1300 l0 -1300 1300 0 1300 0 0 944 0 945 -55 -24 c-89 -40 -371
-182 -490 -248 -452 -249 -917 -587 -1250 -909 l-123 -118 -255 0 -255 0 -21
34 c-12 18 -21 35 -21 38 0 7 227 209 315 280 348 280 744 529 1196 753 289
143 451 210 916 381 l43 16 0 254 0 254 -1300 0 -1300 0 0 -1300z m870 489
c52 -38 146 -106 208 -151 61 -45 112 -84 111 -87 0 -3 -30 -20 -67 -38 -37
-18 -125 -64 -195 -102 l-128 -70 -312 226 c-172 124 -314 227 -316 229 -2 2
2 17 9 34 l12 30 292 0 291 0 95 -71z m962 -702 c123 -90 306 -223 406 -297
101 -73 186 -139 189 -146 2 -7 0 -22 -7 -33 -10 -21 -17 -21 -300 -21 l-289
0 -272 198 c-150 109 -274 202 -275 208 -2 5 20 27 48 49 185 144 264 204 270
204 4 1 108 -72 230 -162z"/>
</g>
</svg>
