<svg id="SpaceX_logo" data-name="SpaceX logo" xmlns="http://www.w3.org/2000/svg" viewBox="0 0 502.79 62.01"><defs><style>.cls-1{fill:#fff;}.cls-2{fill:#a8aaad;}</style></defs><title>spacex-logo</title><path class="cls-1" d="M121,25.58H78.58l-1.52,1.21V64.54H88.73V50.29l1.07-1.06H121c7.89,0,11.52-2.12,11.52-7.58V33c0-5.31-3.63-7.43-11.52-7.43m0,14c0,2.57-1.67,3-5.46,3H90L88.73,41.5v-8L89.8,32.4h25.77c3.64,0,5.46.45,5.46,3v4.1Z" transform="translate(-3.82 -2.68)"/><polyline class="cls-1" points="150.26 30.02 160.42 44.88 159.81 46.25 137.37 46.25 131.61 53.37 164.97 53.37 167.39 54.74 172.55 61.86 186.04 61.86 156.48 22.44"/><polyline class="cls-1" points="284.14 54.28 284.14 43.67 285.36 42.61 307.95 42.61 307.95 35.94 272.17 35.94 272.17 61.86 324.93 61.86 324.93 55.19 285.51 55.19"/><rect class="cls-1" x="272.17" y="22.9" width="53.22" height="7.28"/><path class="cls-1" d="M216.71,32.55h42.91c-.61-5.46-4.1-7-12.59-7H216.25c-9.7,0-12.74,1.82-12.74,9.24V55.45c0,7.27,3,9.24,12.74,9.24H247c8.64,0,12-1.66,12.28-7.27h-42.6l-1.22-1.22V33.46" transform="translate(-3.82 -2.68)"/><path class="cls-1" d="M48.25,40.74H17.17l-.91-1.06V33l.91-.76h42l.6-1.37c-1.36-3.64-5.15-5.46-12-5.46H18.53c-9.7,0-12.73,1.82-12.73,9.25v4.4c0,7.28,3,9.25,12.73,9.25H49.62l.91.91v7l-.76,1.07H4.89s-1.07.6-1.07.75c.76,5.16,4.25,6.52,12.59,6.52H48.25c9.7,0,12.89-1.82,12.89-9.25V50c0-7.28-3.19-9.25-12.89-9.25" transform="translate(-3.82 -2.68)"/><path class="cls-1" d="M362.72,25.42H345.13l-.91,1.82L363.63,41.5c3.64-2.13,7.73-4.25,12-6.37" transform="translate(-3.82 -2.68)"/><path class="cls-1" d="M378.49,52.11l17.13,12.43h17.59l.76-1.66L388.5,44.23c-3.34,2.57-6.83,5.15-10,7.88" transform="translate(-3.82 -2.68)"/><path class="cls-2" d="M360.14,64.54H344.22l-1.36-2.12c10.76-10.46,59-55,163.75-59.74,0,0-87.79,3-146.47,61.86" transform="translate(-3.82 -2.68)"/></svg>